<svg width="137" height="110" viewBox="0 0 137 110" fill="none" xmlns="http://www.w3.org/2000/svg">
<path d="M100.557 8.46118L37.2256 0.597259C35.9624 0.451783 34.682 0.378296 33.4204 0.378296C15.3439 0.378296 0.63739 15.1099 0.63739 33.2171V33.8973C0.63739 46.1431 7.36488 56.8434 17.3108 62.4888L26.0686 97.8926C27.0371 101.808 29.473 105.113 32.9269 107.197C35.3123 108.636 37.9856 109.375 40.7016 109.375C41.9187 109.374 43.1443 109.226 44.3561 108.927L44.5968 108.867C48.5127 107.898 51.8174 105.463 53.9013 102.009C55.9852 98.5547 56.5997 94.496 55.6308 90.5802L49.3075 65.0174L100.557 58.6536C101.965 58.4789 103.022 57.2824 103.022 55.8633V11.2518C103.022 9.8327 101.964 8.6359 100.557 8.46118ZM50.171 91.9303C50.7792 94.3884 50.3934 96.9357 49.0856 99.1032C47.7774 101.271 45.7037 102.8 43.2456 103.408L43.0049 103.467C40.5479 104.076 38.0002 103.69 35.8323 102.381C33.6648 101.074 32.1362 98.9994 31.5284 96.5421L23.7984 65.2918C26.8425 66.2299 30.0737 66.7361 33.4207 66.7361C34.6828 66.7361 35.9632 66.6626 37.2511 66.5137L43.6869 65.7148L50.171 91.9303ZM97.3977 53.3782L36.5826 60.9298C35.532 61.0505 34.4679 61.112 33.42 61.112C18.445 61.112 6.26144 48.9037 6.26144 33.8973V33.2171C6.26144 18.211 18.445 6.00235 33.4204 6.00235C34.4683 6.00235 35.5324 6.06384 36.5578 6.18157L97.398 13.7362V53.3782H97.3977Z" fill="#BB9152"/>
<path d="M16.3496 33.5573C16.3496 43.8707 24.7399 52.2614 35.0537 52.2614C45.3674 52.2614 53.7578 43.8707 53.7578 33.5573C53.7578 23.2439 45.3671 14.8532 35.0537 14.8532C24.7403 14.8532 16.3496 23.2439 16.3496 33.5573ZM48.1337 33.5573C48.1337 40.7696 42.2659 46.6373 35.0537 46.6373C27.8414 46.6373 21.9736 40.77 21.9736 33.5573C21.9736 26.3446 27.8414 20.4773 35.0537 20.4773C42.2659 20.4773 48.1337 26.345 48.1337 33.5573Z" fill="#BB9152"/>
<path d="M109.799 24.6836C111.433 24.6836 112.221 25.5635 113.708 27.394C115.349 29.4149 117.598 32.1823 121.982 32.1823C126.367 32.1823 128.615 29.4149 130.257 27.394C131.744 25.5632 132.531 24.6836 134.166 24.6836C135.719 24.6836 136.978 23.4249 136.978 21.8715C136.978 20.3182 135.719 19.0595 134.166 19.0595C129.781 19.0595 127.533 21.8269 125.891 23.8478C124.404 25.6786 123.617 26.5582 121.982 26.5582C120.347 26.5582 119.56 25.6783 118.073 23.8478C116.432 21.8269 114.183 19.0595 109.799 19.0595C108.246 19.0595 106.987 20.3182 106.987 21.8715C106.987 23.4249 108.246 24.6836 109.799 24.6836Z" fill="#BB9152"/>
<path d="M134.166 36.0454C129.781 36.0454 127.533 38.8128 125.891 40.8337C124.404 42.6645 123.617 43.5441 121.982 43.5441C120.347 43.5441 119.56 42.6642 118.073 40.8337C116.432 38.8128 114.183 36.0454 109.799 36.0454C108.246 36.0454 106.987 37.3041 106.987 38.8574C106.987 40.4108 108.246 41.6695 109.799 41.6695C111.434 41.6695 112.221 42.5494 113.708 44.3799C115.35 46.4008 117.598 49.1682 121.983 49.1682C126.367 49.1682 128.615 46.4008 130.257 44.3799C131.744 42.5491 132.531 41.6695 134.166 41.6695C135.719 41.6695 136.978 40.4108 136.978 38.8574C136.978 37.3041 135.719 36.0454 134.166 36.0454Z" fill="#BB9152"/>
</svg>
