<svg width="147" height="148" viewBox="0 0 147 148" fill="none" xmlns="http://www.w3.org/2000/svg">
<path d="M72.8256 108.533C71.8556 109.503 71.8556 111.078 72.8256 112.048C73.7955 113.018 75.37 113.018 76.34 112.048C77.3099 111.078 77.3099 109.503 76.34 108.533C75.37 107.564 73.7955 107.564 72.8256 108.533Z" fill="#BB9152"/>
<path d="M76.3399 27.7052C75.3699 28.6751 75.3699 30.2497 76.3399 31.2196C77.3098 32.1895 78.8843 32.1895 79.8543 31.2196C80.8242 30.2497 80.8242 28.6751 79.8543 27.7052C78.8843 26.7353 77.3098 26.7353 76.3399 27.7052Z" fill="#BB9152"/>
<path d="M86.9249 13.6127L83.8007 16.7369C83.4177 14.6107 82.7359 11.5814 82.272 9.57137C82.0893 8.79829 81.5516 8.15517 80.8206 7.84581C80.0895 7.53644 79.2568 7.59623 78.5749 8.00395C72.4495 11.6765 68.8193 18.3641 69.0829 25.4664C69.1322 26.7386 69.192 28.7452 69.2481 31.2826L20.1114 80.4193C13.3287 87.202 13.3287 98.2368 20.1114 105.019C21.0813 105.989 22.6558 105.989 23.6257 105.019L65.7972 62.848C66.7671 61.8781 66.8093 60.3741 65.8429 59.4005C65.8182 59.3267 65.4914 57.8613 69.2167 52.8429C68.7809 72.2979 67.0448 97.7132 61.552 116.821C60.5855 120.191 61.1585 123.786 63.1369 126.671C65.1155 129.563 68.2536 131.401 71.7469 131.718L71.7646 131.721C75.3528 132.048 78.7474 130.733 81.1372 128.344C82.5394 126.941 83.5937 125.17 84.1348 123.139C88.6824 106.27 92.7449 69.4408 87.129 33.7989C89.0232 31.9889 90.8646 30.253 92.5269 28.6819C94.3543 26.9669 95.985 25.4347 97.2957 24.1661L97.3872 24.0747C98.7683 22.6936 99.5379 20.8628 99.559 18.9087C99.5732 16.9056 98.8034 15.0255 97.3906 13.6127C94.5052 10.7276 89.81 10.7276 86.9249 13.6127ZM60.9965 60.6199L22.0442 99.5722C18.8568 94.7471 19.3803 88.1789 23.6256 83.9336L69.3359 38.2232C69.3499 40.3178 69.3499 42.5318 69.3325 44.8407C64.3913 50.4496 59.9386 56.4344 60.9965 60.6199ZM79.8295 22.3528C80.687 26.092 81.418 29.782 81.9944 33.3173C81.9944 33.3315 82.0121 33.3419 82.0121 33.356C87.8139 68.5797 83.8287 105.199 79.3411 121.853C78.4906 125.009 75.4964 127.075 72.2141 126.773L72.1965 126.769C70.1828 126.583 68.3765 125.529 67.2414 123.866C66.1062 122.204 65.7723 120.134 66.3312 118.191C75.7249 85.5115 74.4141 35.0638 74.052 25.2837C73.901 21.2107 75.4719 17.3204 78.2832 14.4949C78.74 16.6316 79.0986 18.459 79.1266 18.9229C79.1266 19.1268 79.1477 19.3235 79.197 19.5204C79.4289 20.4551 79.6116 21.4041 79.8295 22.3459C79.833 22.3493 79.8295 22.3528 79.8295 22.3528ZM94.5824 18.8596C94.5754 19.5204 94.2485 20.065 93.8375 20.5887C92.5407 21.8433 90.9241 23.3614 89.1178 25.0623C88.1584 25.9726 87.1393 26.9284 86.0849 27.9265C86.0814 27.9019 86.0744 27.8807 86.0709 27.8561C85.737 26.1026 85.3645 24.3595 84.9815 22.6198C84.9815 22.6056 84.9744 22.5916 84.9746 22.5776L90.4323 17.1199C91.3812 16.171 92.9205 16.171 93.8693 17.1199C94.3365 17.5874 94.5859 18.2025 94.5824 18.8596Z" fill="#BB9152"/>
<path d="M78.097 64.605C77.1271 65.575 77.1271 67.1495 78.097 68.1194C79.067 69.0894 80.6415 69.0894 81.6114 68.1194C82.5814 67.1495 82.5814 65.575 81.6114 64.605C80.6413 63.6353 79.067 63.6351 78.097 64.605Z" fill="#BB9152"/>
</svg>
