<svg width="85" height="125" viewBox="0 0 85 125" fill="none" xmlns="http://www.w3.org/2000/svg">
<path d="M57.8256 101.533C56.8556 102.503 56.8556 104.078 57.8256 105.048C58.7955 106.018 60.37 106.018 61.34 105.048C62.3099 104.078 62.3099 102.503 61.34 101.533C60.37 100.564 58.7955 100.564 57.8256 101.533Z" fill="#BB9152"/>
<path d="M61.3399 20.7052C60.3699 21.6752 60.3699 23.2497 61.3399 24.2196C62.3098 25.1896 63.8843 25.1896 64.8543 24.2196C65.8242 23.2497 65.8242 21.6752 64.8543 20.7052C63.8843 19.7353 62.3098 19.7353 61.3399 20.7052Z" fill="#BB9152"/>
<path d="M71.9249 6.61276L68.8007 9.7369C68.4177 7.61071 67.7359 4.58144 67.272 2.57138C67.0893 1.7983 66.5516 1.15518 65.8206 0.845815C65.0895 0.536447 64.2568 0.596244 63.5749 1.00396C57.4495 4.67649 53.8193 11.3641 54.0829 18.4664C54.1322 19.7386 54.192 21.7452 54.2481 24.2826L5.11136 73.4193C-1.67132 80.202 -1.67132 91.2368 5.11136 98.0194C6.0813 98.9894 7.65581 98.9894 8.62576 98.0194L50.7972 55.848C51.7671 54.8781 51.8093 53.3741 50.843 52.4005C50.8182 52.3267 50.4914 50.8613 54.2167 45.8429C53.781 65.2979 52.0448 90.7132 46.552 109.821C45.5855 113.191 46.1585 116.786 48.1369 119.671C50.1155 122.563 53.2536 124.401 56.747 124.718L56.7646 124.721C60.3528 125.048 63.7474 123.733 66.1372 121.344C67.5394 119.941 68.5937 118.17 69.1348 116.139C73.6824 99.2704 77.7449 62.4408 72.129 26.7989C74.0232 24.9889 75.8646 23.253 77.5269 21.6819C79.3543 19.9669 80.985 18.4348 82.2957 17.1661L82.3872 17.0747C83.7683 15.6936 84.5379 13.8628 84.559 11.9087C84.5732 9.90558 83.8034 8.0255 82.3906 6.61276C79.5052 3.72764 74.81 3.72764 71.9249 6.61276ZM45.9965 53.6199L7.04416 92.5723C3.85676 87.7471 4.38028 81.1789 8.62559 76.9336L54.3359 31.2232C54.3499 33.3178 54.3499 35.5318 54.3325 37.8407C49.3913 43.4496 44.9386 49.4344 45.9965 53.6199ZM64.8295 15.3528C65.687 19.092 66.418 22.782 66.9944 26.3173C66.9944 26.3315 67.0121 26.3419 67.0121 26.3561C72.8139 61.5797 68.8287 98.1987 64.3411 114.853C63.4906 118.009 60.4964 120.075 57.2141 119.773L57.1965 119.769C55.1828 119.583 53.3765 118.529 52.2414 116.866C51.1062 115.204 50.7723 113.134 51.3312 111.191C60.7249 78.5115 59.4141 28.0638 59.0521 18.2837C58.901 14.2107 60.4719 10.3204 63.2832 7.49489C63.74 9.63163 64.0986 11.459 64.1266 11.9229C64.1266 12.1268 64.1477 12.3235 64.197 12.5204C64.4289 13.4551 64.6116 14.4041 64.8295 15.3459C64.833 15.3493 64.8295 15.3528 64.8295 15.3528ZM79.5824 11.8596C79.5754 12.5204 79.2485 13.065 78.8375 13.5887C77.5408 14.8433 75.9241 16.3614 74.1178 18.0623C73.1584 18.9726 72.1393 19.9284 71.0849 20.9265C71.0814 20.9019 71.0744 20.8807 71.0709 20.8561C70.737 19.1026 70.3645 17.3595 69.9815 15.6198C69.9815 15.6056 69.9744 15.5916 69.9746 15.5776L75.4324 10.1199C76.3812 9.17105 77.9205 9.17104 78.8693 10.1199C79.3365 10.5874 79.5859 11.2025 79.5824 11.8596Z" fill="#BB9152"/>
<path d="M63.097 57.605C62.1271 58.575 62.1271 60.1495 63.097 61.1194C64.067 62.0894 65.6415 62.0894 66.6114 61.1194C67.5814 60.1495 67.5814 58.575 66.6114 57.605C65.6413 56.6353 64.067 56.6351 63.097 57.605Z" fill="#BB9152"/>
</svg>
