<svg width="80" height="109" viewBox="0 0 80 109" fill="none" xmlns="http://www.w3.org/2000/svg">
<path d="M66.9701 85.6948C62.9459 83.9977 58.2904 85.8904 56.5929 89.9151C54.8953 93.9398 56.7885 98.595 60.8132 100.292C61.8152 100.715 62.856 100.915 63.8811 100.915C66.9722 100.915 69.9156 99.0945 71.1906 96.0719C72.8876 92.0476 70.9946 87.3924 66.9701 85.6948ZM67.5154 94.522C66.6726 96.5203 64.3611 97.4597 62.3632 96.6174C61.3954 96.2093 60.6444 95.4484 60.2486 94.4754C59.8527 93.5021 59.8596 92.4332 60.2677 91.4654C60.9008 89.9647 62.362 89.061 63.8969 89.061C64.4058 89.061 64.9227 89.1603 65.4203 89.3703C67.4181 90.2124 68.358 92.524 67.5154 94.522Z" fill="#BB9152"/>
<path d="M78.0271 87.2449C76.4915 83.4692 73.5775 80.5172 69.8218 78.9333C65.0989 76.9416 59.9274 77.52 55.8655 80.0264L42.8918 48.3518C42.4911 47.3739 41.3972 46.8784 40.3985 47.2218C39.4376 47.5523 38.382 47.45 37.5024 46.9419C36.6226 46.434 36.0067 45.5706 35.8122 44.5736L35.5583 43.2715C35.5577 43.2683 35.5571 43.2652 35.5565 43.2616L28.2648 5.87048L38.1078 29.2889C38.108 29.29 38.1086 29.2908 38.109 29.2919L44.4702 44.4267C44.4713 44.4295 44.4723 44.432 44.4734 44.4347L55.779 71.5669C56.2057 72.582 57.3744 73.0594 58.3902 72.6326C59.4053 72.2058 59.8826 71.0369 59.4559 70.0214L48.3819 43.4396L55.8084 5.35673C56.2469 3.37802 55.1705 1.49533 53.2367 0.870008C51.2895 0.240063 49.3016 1.15241 48.5086 3.03867L39.9547 23.3898L31.4009 3.03867C30.6083 1.15262 28.6199 0.239643 26.6729 0.870008C24.7388 1.49533 23.6625 3.37844 24.1013 5.35715L31.5274 43.4394L17.0985 77.7684C14.7303 77.5978 12.3384 77.9831 10.0874 78.9327C6.3317 80.5168 3.41795 83.4686 1.88238 87.2442C0.34681 91.0199 0.373706 95.1677 1.9576 98.9232C3.37676 102.288 5.95748 105.035 9.22424 106.657C11.3631 107.72 13.6891 108.253 16.0187 108.253C18.0319 108.253 20.0484 107.854 21.9484 107.053C25.7039 105.469 28.6178 102.517 30.1534 98.741C31.689 94.9654 31.6621 90.8176 30.0782 87.0621C29.3871 85.424 28.4356 83.9464 27.2695 82.6728L37.6461 57.3391C38.0636 56.32 37.5757 55.1553 36.5564 54.7378C35.5369 54.3203 34.3726 54.8086 33.9551 55.8275L24.0473 80.0171C23.3263 79.5731 22.5661 79.1825 21.7664 78.8572C21.538 78.7644 21.3079 78.6778 21.077 78.5961L33.5948 48.8139C34.1348 49.4362 34.7784 49.9735 35.5081 50.3946C36.8277 51.1567 38.3324 51.4916 39.8223 51.3784L52.6442 82.6819C51.4919 83.9367 50.5308 85.4044 49.8315 87.0616C46.5616 94.8143 50.2084 103.782 57.9615 107.052C59.8618 107.854 61.878 108.253 63.8911 108.253C66.2205 108.253 68.5466 107.719 70.6856 106.657C73.9524 105.034 76.5329 102.287 77.9523 98.9228C79.5362 95.1683 79.5626 91.0205 78.0271 87.2449ZM51.6432 5.87741L45.6059 36.8357L42.1177 28.5365L51.6432 5.87741ZM23.5085 84.5646C23.5423 84.5984 23.5785 84.6299 23.6148 84.6616C24.8058 85.7463 25.7585 87.0845 26.4029 88.6132C27.5731 91.3872 27.5929 94.451 26.4584 97.2397C25.3244 100.029 23.1719 102.209 20.3981 103.379C17.3704 104.656 13.9446 104.549 10.9979 103.086C8.58589 101.888 6.6805 99.8593 5.63221 97.374C4.46204 94.6 4.44229 91.5362 5.57674 88.7475C6.71076 85.9587 8.86325 83.7785 11.6371 82.6085C13.0472 82.0137 14.5311 81.7164 16.0166 81.7164C17.4539 81.7164 18.8923 81.995 20.2638 82.5529C21.4705 83.0433 22.5625 83.7249 23.5085 84.5646ZM74.277 97.3738C73.2289 99.8591 71.3231 101.888 68.9114 103.086C65.965 104.549 62.539 104.656 59.5114 103.379C53.7851 100.964 51.0912 94.3394 53.5067 88.6132C55.3207 84.3124 59.5084 81.7222 63.9071 81.7222C65.3653 81.7222 66.8469 82.007 68.2724 82.6085C71.0464 83.7785 73.1987 85.9589 74.3329 88.7475C75.4669 91.5362 75.4472 94.5998 74.277 97.3738Z" fill="#BB9152"/>
<path d="M23.3167 89.9151C21.6193 85.8904 16.9639 83.9977 12.9396 85.6948C10.9899 86.5172 9.47745 88.0492 8.68025 90.0095C7.88304 91.9695 7.89712 94.1226 8.71933 96.0721C9.54174 98.0218 11.0737 99.5343 13.034 100.331C13.9978 100.724 15.0085 100.919 16.0187 100.919C17.0626 100.919 18.1061 100.71 19.0964 100.292C21.0459 99.47 22.5586 97.938 23.3558 95.9777C24.1528 94.0177 24.1387 91.8648 23.3167 89.9151ZM19.661 94.4749C19.2653 95.448 18.5141 96.2089 17.5461 96.6174C16.5783 97.0254 15.5094 97.0328 14.5361 96.6367C13.563 96.241 12.8022 95.4898 12.3941 94.522C11.9861 93.5542 11.9792 92.4853 12.3748 91.512C12.7705 90.539 13.5217 89.7781 14.4897 89.3696C14.9873 89.1599 15.5037 89.0603 16.0126 89.0603C17.5472 89.0603 19.0086 89.9643 19.6417 91.4648C20.0497 92.433 20.0566 93.5019 19.661 94.4749Z" fill="#BB9152"/>
<path d="M40.1589 44.2042C41.2603 44.2042 42.1532 43.3114 42.1532 42.21C42.1532 41.1086 41.2603 40.2157 40.1589 40.2157C39.0575 40.2157 38.1647 41.1086 38.1647 42.21C38.1647 43.3114 39.0575 44.2042 40.1589 44.2042Z" fill="#BB9152"/>
</svg>
