<svg width="107" height="108" viewBox="0 0 107 108" fill="none" xmlns="http://www.w3.org/2000/svg">
<path d="M106.468 31.519C105.771 30.8214 104.639 30.8212 103.941 31.519L100.572 34.8886L98.7668 33.0839L102.137 29.7143C102.835 29.0164 102.835 27.885 102.137 27.1871C101.439 26.4895 100.307 26.4893 99.6095 27.1871L96.2397 30.5567L94.4349 28.752L97.8048 25.3821C98.5026 24.6843 98.5026 23.553 97.8048 22.8552C97.1069 22.1576 95.9757 22.1574 95.2776 22.8552L91.908 26.2248L90.1032 24.42L93.4731 21.0502C94.1709 20.3523 94.1709 19.2211 93.4731 18.5233C92.7752 17.8257 91.644 17.8254 90.9459 18.5233L87.5763 21.8929L85.7716 20.0881L89.1414 16.7183C89.8392 16.0204 89.8392 14.8892 89.1414 14.1914C88.4436 13.4938 87.3123 13.4935 86.6143 14.1914L83.2446 17.561L81.4399 15.7562L84.8095 12.3864C85.5073 11.6885 85.5073 10.557 84.8092 9.85921C84.1116 9.16136 82.9802 9.1616 82.2823 9.85921L78.9127 13.2288L77.108 11.4241L80.4776 8.05444C81.1754 7.3566 81.1754 6.22513 80.4776 5.52729C79.7795 4.82945 78.6483 4.82945 77.9504 5.52729L74.5808 8.8969L72.776 7.09214L76.1457 3.72229C76.8435 3.02444 76.8435 1.89298 76.1454 1.19514C75.4478 0.497292 74.3164 0.497292 73.6185 1.19514L69.6759 5.13775C69.1179 5.17325 68.5697 5.40173 68.143 5.8282L7.24406 66.7278C-1.47648 75.4484 -2.00969 89.3028 5.64324 98.6516L1.27559 103.019C0.345207 103.95 0.345207 105.458 1.27559 106.389C1.74089 106.854 2.35058 107.086 2.96027 107.086C3.56996 107.086 4.17965 106.854 4.64496 106.389L9.01262 102.021C13.3824 105.598 18.7362 107.387 24.0902 107.387C30.1909 107.387 36.2921 105.065 40.9366 100.42L101.835 39.5217C102.262 39.0952 102.49 38.547 102.525 37.9888L106.468 34.0459C107.166 33.3483 107.166 32.2169 106.468 31.519ZM37.5672 97.051C30.1364 104.482 18.0445 104.482 10.6134 97.051C7.01367 93.4512 5.03093 88.665 5.03093 83.5742C5.03093 78.4832 7.01343 73.6972 10.6134 70.0974L63.7632 16.9475L68.6061 21.7904L54.6238 35.7728C54.1771 36.2195 53.9259 36.8256 53.9259 37.4575C53.9259 38.0893 54.1771 38.6954 54.6238 39.1422L68.522 53.0402C68.9873 53.5055 69.597 53.738 70.2067 53.738C70.8164 53.738 71.4261 53.5055 71.8914 53.0402L85.8735 39.0581L90.7165 43.9013L37.5672 97.051ZM82.5042 35.6887L77.838 40.3549L67.3093 29.826L71.9755 25.1598L82.5042 35.6887ZM60.9918 36.1435L71.5204 46.6722L70.2067 47.9859L59.6781 37.4572L60.9918 36.1435ZM74.0478 44.1453L63.5192 33.6166L64.7824 32.3534L75.3111 42.8823L74.0478 44.1453ZM94.0861 40.5317L67.1325 13.5781L69.8272 10.8835L96.7807 37.837L94.0861 40.5317Z" fill="#BB9152"/>
<path d="M49.3594 50.4711L37.1799 62.6506C36.1337 63.6968 35.5574 65.0877 35.5574 66.5673C35.5574 68.0468 36.1337 69.438 37.1799 70.4841C38.2263 71.5303 39.617 72.1066 41.0965 72.1066C42.5763 72.1066 43.9672 71.5305 45.0134 70.4841L57.1931 58.3046C58.2393 57.2585 58.8156 55.8675 58.8156 54.3878C58.8156 52.9082 58.2393 51.5173 57.1931 50.4711C55.0338 48.3118 51.5201 48.3111 49.3594 50.4711ZM42.4865 67.9575C41.7207 68.7237 40.4735 68.7239 39.7073 67.9575C38.9408 67.191 38.9408 65.9442 39.7073 65.178L48.2227 56.6626L51.0021 59.4421L42.4865 67.9575ZM54.6662 55.7777L53.5293 56.9147L50.7498 54.1352L51.8865 52.9983C52.2699 52.6149 52.7733 52.4234 53.2765 52.4234C53.7797 52.4234 54.2833 52.6149 54.6662 52.998C55.4327 53.7645 55.4327 55.0115 54.6662 55.7777Z" fill="#BB9152"/>
</svg>
