<svg width="407" height="249" viewBox="0 0 407 249" fill="none" xmlns="http://www.w3.org/2000/svg">
<path fill-rule="evenodd" clip-rule="evenodd" d="M33.9304 148.64H28.3302L11.365 125.91V165.605L0 171.206L33.9304 216.666V148.64Z" fill="#BB9152"/>
<path fill-rule="evenodd" clip-rule="evenodd" d="M60.6136 159.841L51.7192 147.981L39.6954 163.794V226.054H33.9305L51.0604 248.784V168.405L55.837 161.817L60.943 164.452L60.6136 159.841Z" fill="#BB9152"/>
<path fill-rule="evenodd" clip-rule="evenodd" d="M56.6605 97.5799L14.1651 76.3322L11.3651 69.2497V86.2149L56.6605 108.945V97.5799Z" fill="#BB9152"/>
<path d="M215.441 171.206H193.535V149.464V125.745L171.793 104.004V149.628V171.37H149.722V40.0959H171.628V61.8377V73.038L188.923 90.3326L193.37 85.7207V62.0024V40.0959H215.277V94.7798L204.241 105.815L215.277 116.522V171.206H215.441Z" fill="white"/>
<path d="M224.665 79.4617H239.983V171.206H224.665V79.4617Z" fill="white"/>
<path d="M264.69 171.206H249.372V79.4617H264.69L281.161 100.215V79.4617H296.479V171.206H281.161V122.945L264.69 102.521V171.206Z" fill="white"/>
<path d="M355.445 148.64L351.657 146.828V171.37H305.703V79.6264H351.657V115.698L336.339 108.451V94.9445H321.186V156.217H336.339V139.416L326.456 134.475V118.992L355.445 132.663V148.64Z" fill="white"/>
<path d="M407 127.063V171.206H391.682H376.528H361.21V135.134L376.528 142.381V155.887H391.682V136.781L361.045 122.781V79.297H407V115.369L391.682 108.121V94.6151H376.528V112.898L407 127.063Z" fill="white"/>
<path fill-rule="evenodd" clip-rule="evenodd" d="M11.3651 15.3893V55.0846L37.7187 68.2614L11.3651 15.3893Z" fill="#BB9152"/>
<path fill-rule="evenodd" clip-rule="evenodd" d="M57.484 75.8381L45.2954 15.3893L25.036 35.6487L41.0129 67.6026L57.484 75.8381Z" fill="#BB9152"/>
<path fill-rule="evenodd" clip-rule="evenodd" d="M65.2254 81.9324L70.4962 79.297L80.7082 20.8247L65.2254 0.23584L49.7426 20.8247L59.79 79.297L65.2254 81.9324Z" fill="#BB9152"/>
<path fill-rule="evenodd" clip-rule="evenodd" d="M119.086 165.605V125.91L101.956 148.64H96.3557V216.666L130.451 171.206L119.086 165.605Z" fill="#BB9152"/>
<path fill-rule="evenodd" clip-rule="evenodd" d="M90.7556 163.794L78.7317 147.981L69.6726 159.841L69.3432 164.452L74.4492 161.817L79.3906 168.405V248.784L96.3557 226.054H90.7556V163.794Z" fill="#BB9152"/>
<path fill-rule="evenodd" clip-rule="evenodd" d="M73.6256 108.945L119.086 86.2149V69.2497L116.121 76.3322L73.6256 97.5799V108.945Z" fill="#BB9152"/>
<path fill-rule="evenodd" clip-rule="evenodd" d="M119.086 15.3893L92.5674 68.2614L119.086 55.0846V15.3893Z" fill="#BB9152"/>
<path fill-rule="evenodd" clip-rule="evenodd" d="M89.2732 67.6026L105.25 35.6487L84.9907 15.3893L72.9669 75.8381L89.2732 67.6026Z" fill="#BB9152"/>
<path fill-rule="evenodd" clip-rule="evenodd" d="M65.2255 189.983L60.9431 192.124L56.6606 186.359V227.866L65.2255 239.231L73.6258 227.866V186.359L69.3433 192.124L65.2255 189.983Z" fill="#BB9152"/>
<path d="M244.266 54.0963C243.607 54.4257 242.948 54.4257 242.289 54.4257C242.125 52.9433 241.795 51.9551 241.136 51.1315C240.478 50.4727 239.489 49.9785 238.172 49.9785H236.525V67.2731C236.525 68.0967 236.525 68.7555 236.689 69.2497C236.854 69.7438 237.019 69.9085 237.513 70.2379C237.842 70.4026 238.501 70.5673 239.325 70.5673C239.489 71.0615 239.489 71.5556 239.489 72.2144C238.007 72.2144 236.36 72.0497 234.548 72.0497C232.407 72.0497 230.76 72.0497 229.442 72.2144C229.442 71.5556 229.442 70.8968 229.607 70.5673C230.43 70.5673 231.089 70.4026 231.419 70.2379C231.748 70.0732 232.077 69.7438 232.242 69.2497C232.407 68.7555 232.407 68.0967 232.407 67.2731V49.9785H230.924C229.936 49.9785 229.113 50.1432 228.454 50.4726C227.795 50.802 227.465 51.2962 227.136 51.7903C226.807 52.2845 226.642 53.108 226.477 54.261C225.489 54.261 224.83 54.0963 224.501 53.9316C224.83 51.955 225.16 49.9785 225.16 48.1667C226.642 48.1667 229.607 48.3314 234.383 48.3314C239.16 48.3314 242.289 48.3314 243.772 48.1667C243.937 49.8138 243.937 51.7903 244.266 54.0963Z" fill="white"/>
<path d="M266.172 69.4143C266.337 69.7438 266.502 70.0732 266.831 70.2379C267.161 70.4026 267.49 70.5673 268.149 70.5673C268.314 70.8968 268.314 71.3909 268.314 72.2144C266.831 72.2144 265.349 72.2144 264.196 72.2144C262.878 72.2144 261.561 72.2144 259.913 72.2144C259.913 71.5556 259.913 70.8968 260.078 70.5673C260.572 70.5673 261.066 70.4026 261.231 70.2379C261.561 70.0732 261.725 69.9085 261.89 69.4143C262.055 69.0849 262.055 68.4261 262.055 67.7672V63.8142C258.266 63.8142 255.302 63.8142 253.49 63.9789V67.7672C253.49 68.5908 253.49 69.0849 253.654 69.4143C253.819 69.7438 253.984 70.0732 254.313 70.2379C254.643 70.4026 254.972 70.5673 255.631 70.5673C255.796 70.8968 255.796 71.3909 255.796 72.2144C254.313 72.2144 252.996 72.2144 251.843 72.2144C250.525 72.2144 249.043 72.2144 247.56 72.2144C247.56 71.5556 247.56 70.8968 247.725 70.5673C248.384 70.5673 248.713 70.4026 249.043 70.2379C249.372 70.0732 249.537 69.9085 249.701 69.4143C249.866 69.0849 249.866 68.4261 249.866 67.7672V58.7082C249.866 58.0493 249.866 57.3905 249.701 57.061C249.537 56.7316 249.372 56.4022 249.043 56.4022C248.713 56.4022 248.384 56.2375 247.725 56.0728C247.56 55.7434 247.56 55.2493 247.56 54.4257C249.043 54.4257 250.36 54.4257 251.843 54.4257C252.996 54.4257 254.313 54.4257 255.96 54.4257C255.96 55.2493 255.96 55.7434 255.796 56.0728C255.302 56.0728 254.807 56.2375 254.478 56.4022C254.149 56.5669 253.984 56.8963 253.819 57.2258C253.654 57.5552 253.654 58.214 253.654 58.8729V62.1671H262.219V58.8729C262.219 58.214 262.219 57.5552 262.055 57.2258C261.89 56.8963 261.725 56.5669 261.396 56.4022C261.066 56.2375 260.737 56.0728 260.078 56.0728C259.913 55.5787 259.913 55.0846 259.913 54.4257C261.396 54.4257 262.713 54.4257 264.031 54.4257C265.184 54.4257 266.502 54.4257 268.149 54.4257C268.149 55.0846 268.149 55.5787 267.984 56.0728C267.325 56.0728 266.996 56.2375 266.667 56.4022C266.337 56.5669 266.172 56.7316 266.008 57.2258C265.843 57.7199 265.843 58.0493 265.843 58.8729V67.932C266.008 68.5908 266.172 69.0849 266.172 69.4143Z" fill="white"/>
<path d="M289.726 67.7672C289.232 68.9202 289.067 70.4026 288.738 72.2144H281.655C278.032 72.2144 275.232 72.2144 273.255 72.2144C273.255 71.3909 273.255 70.732 273.42 70.4026C274.079 70.4026 274.408 70.2379 274.738 70.0732C275.067 69.9085 275.232 69.7438 275.396 69.2497C275.561 68.9202 275.561 68.2614 275.561 67.4378V58.7081C275.561 58.0493 275.561 57.3904 275.396 57.061C275.232 56.7316 275.067 56.4022 274.738 56.2375C274.408 56.0728 274.079 55.9081 273.42 55.9081C273.255 55.5787 273.255 54.9198 273.255 54.0963C275.067 54.0963 277.208 54.0963 279.349 54.0963C283.467 54.0963 286.267 54.0963 287.914 54.0963C288.244 56.4022 288.408 57.7199 288.573 58.5435C288.079 58.8729 287.42 59.0376 286.761 59.0376C286.597 58.0493 286.267 57.2258 285.608 56.7316C284.95 56.2375 283.632 55.9081 281.985 55.9081H279.514V62.1671H280.997C282.15 62.1671 282.973 62.0024 283.302 61.8377C283.797 61.5083 283.961 61.0141 283.961 60.3552C284.455 60.1905 285.114 60.0259 285.773 60.0259C285.773 60.6847 285.773 61.6729 285.773 62.9906C285.773 64.473 285.773 65.4613 285.773 66.1201C285.114 66.1201 284.455 66.1202 284.126 65.9555C284.126 65.1319 283.797 64.6377 283.302 64.473C282.808 64.1436 282.15 64.1436 280.997 64.1436H279.514V67.4378C279.514 68.2614 279.514 68.7555 279.679 69.2497C279.844 69.5791 280.008 69.9085 280.502 70.0732C280.832 70.2379 281.491 70.2379 282.149 70.2379H282.314C283.632 70.2379 284.455 70.0732 285.279 69.9085C285.938 69.7438 286.432 69.2496 286.926 68.9202C287.42 68.5908 287.585 67.7672 287.914 66.9437C288.738 67.1084 289.397 67.2731 289.726 67.7672Z" fill="white"/>
<path d="M319.374 65.1319C319.374 67.2731 318.715 68.9202 317.233 70.2379C315.75 71.5556 313.609 72.2144 310.48 72.2144C305.868 72.2144 302.574 72.2144 300.597 72.3791C300.597 71.5556 300.597 71.0615 300.762 70.732C301.421 70.732 301.915 70.5673 302.244 70.4026C302.574 70.2379 302.903 69.9084 302.903 69.4143C303.068 68.9202 303.068 68.2614 303.068 67.2731V53.4374C303.068 52.6139 303.068 51.955 302.903 51.4609C302.738 50.9668 302.574 50.6373 302.244 50.4726C301.915 50.3079 301.421 50.1432 300.762 50.1432C300.597 49.8138 300.597 49.155 300.597 48.4961C301.585 48.4961 302.738 48.6608 304.221 48.6608H307.021C307.68 48.6608 308.503 48.6608 309.821 48.6608C312.292 48.6608 314.268 48.9902 315.586 49.8138C316.903 50.6373 317.562 51.955 317.562 53.7668C317.562 55.2492 317.068 56.5669 316.245 57.5552C315.256 58.5435 314.103 59.2023 312.456 59.5317C317.068 59.367 319.374 61.5083 319.374 65.1319ZM312.127 50.9668C311.139 50.3079 309.986 49.8138 308.668 49.8138C308.338 49.8138 307.844 49.8138 307.185 49.9785V58.7081H308.338C311.797 58.7081 313.609 57.2258 313.609 54.261C313.609 52.9433 313.115 51.7903 312.127 50.9668ZM313.774 69.0849C314.597 68.2614 314.927 67.1084 314.927 65.626C314.927 62.1671 312.621 60.52 307.844 60.52H307.021V66.9437C307.021 67.9319 307.185 68.5908 307.35 69.0849C307.515 69.5791 307.844 69.9085 308.338 70.0732C308.833 70.2379 309.491 70.2379 310.315 70.2379C311.797 70.4026 312.95 69.9085 313.774 69.0849Z" fill="white"/>
<path d="M335.186 70.0732C335.845 69.9085 336.339 69.4144 336.669 68.9202C336.998 68.4261 337.492 67.7672 337.822 66.9437C338.645 67.1084 339.139 67.2731 339.633 67.7672C339.139 68.9202 338.975 70.4026 338.645 72.2145H332.057C328.433 72.2145 325.633 72.2145 323.657 72.2145C323.657 71.3909 323.657 70.732 323.821 70.4026C324.48 70.4026 324.81 70.2379 325.139 70.0732C325.468 69.9085 325.633 69.5791 325.798 69.2497C325.962 68.9203 325.962 68.2614 325.962 67.6026V58.8729C325.962 58.214 325.962 57.5552 325.798 57.2258C325.633 56.8963 325.468 56.5669 325.139 56.4022C324.81 56.2375 324.315 56.0728 323.821 56.0728C323.657 55.7434 323.657 55.0845 323.657 54.261C325.468 54.261 326.951 54.261 327.774 54.261C328.927 54.261 330.245 54.261 331.892 54.261C331.892 55.0845 331.892 55.5787 331.727 56.0728C331.069 56.0728 330.739 56.2375 330.41 56.4022C330.08 56.5669 329.916 56.7316 329.751 57.2258C329.586 57.5552 329.586 58.214 329.586 58.8729V67.4379C329.586 68.2614 329.586 68.7555 329.751 69.2497C329.916 69.5791 330.08 69.9085 330.574 70.0732C330.904 70.2379 331.563 70.2379 332.221 70.2379H332.386C333.704 70.4026 334.527 70.2379 335.186 70.0732Z" fill="white"/>
<path d="M362.034 72.2145C360.881 72.2145 359.728 72.2145 358.246 72.2145C356.599 72.2145 355.281 72.2145 354.128 72.2145C354.128 71.3909 354.128 70.8968 354.293 70.4026C354.787 70.4026 355.116 70.2379 355.446 70.0732C355.775 69.9085 355.775 69.7438 355.775 69.4144C355.775 69.0849 355.61 68.7555 355.446 68.4261L354.787 67.1084C351.493 67.1084 348.857 67.1084 347.045 67.2731L346.716 67.932C346.551 68.4261 346.387 68.7555 346.387 69.085C346.387 69.7438 346.881 70.2379 347.869 70.2379C348.034 70.732 348.034 71.2262 348.034 72.0497C347.21 72.0497 346.057 72.0497 345.069 72.0497C344.081 72.0497 343.257 72.0497 342.434 72.0497C342.434 71.3909 342.434 70.8967 342.598 70.2379C343.092 70.0732 343.587 69.9085 343.751 69.5791C344.081 69.2497 344.41 68.5908 344.904 67.6026L350.999 54.4257C351.493 54.261 351.987 54.261 352.646 54.261L359.234 67.6026C359.728 68.5908 360.222 69.2497 360.552 69.7438C360.881 70.2379 361.375 70.2379 361.705 70.4026C362.034 70.8968 362.034 71.3909 362.034 72.2145ZM354.128 65.626L352.151 61.5083L351.822 60.6847C351.493 60.0259 351.163 59.2023 350.834 58.3788C350.669 59.0376 350.504 59.5317 350.175 60.0259C349.846 60.52 349.681 61.0141 349.681 61.1788L347.869 65.4613H354.128V65.626Z" fill="white"/>
<path d="M366.317 70.4026C366.975 70.4026 367.305 70.2379 367.634 70.0732C367.964 69.9085 368.128 69.5791 368.293 69.2497C368.458 68.9203 368.458 68.2614 368.458 67.6026V58.8729C368.458 58.214 368.458 57.5552 368.293 57.2258C368.128 56.8963 367.964 56.5669 367.634 56.4022C367.305 56.2375 366.811 56.0728 366.317 56.0728C366.152 55.7434 366.152 55.0845 366.152 54.261C367.634 54.261 369.117 54.261 371.093 54.261C371.752 54.261 372.411 54.261 372.74 54.261H374.717C378.176 54.261 380.976 54.9198 383.117 56.0728C385.258 57.2258 386.411 59.5317 386.411 62.6613C386.411 66.2849 385.094 68.7556 382.623 70.0732C380.152 71.3909 377.517 71.885 374.717 71.885C371.093 71.885 368.293 71.885 366.317 71.885C365.987 71.3909 366.152 70.7321 366.317 70.4026ZM378.67 69.9085C379.658 69.5791 380.482 68.9202 381.141 67.7672C381.799 66.779 382.129 65.2966 382.129 63.3201C382.129 60.6847 381.305 58.8729 379.823 57.8846C378.341 56.7316 376.364 56.2375 374.058 56.2375C373.235 56.2375 372.576 56.2375 372.082 56.4022V67.6026C372.082 68.4261 372.082 68.9202 372.246 69.4144C372.411 69.7438 372.576 70.0732 373.07 70.2379C373.399 70.4026 374.058 70.4026 374.717 70.4026C376.364 70.4026 377.682 70.2379 378.67 69.9085Z" fill="white"/>
<path d="M407 67.7672C406.506 68.9202 406.341 70.4026 406.012 72.2144H398.929C395.305 72.2144 392.505 72.2144 390.529 72.2144C390.529 71.3909 390.529 70.732 390.694 70.4026C391.352 70.4026 391.682 70.2379 392.011 70.0732C392.341 69.9085 392.505 69.7438 392.67 69.2497C392.835 68.9202 392.835 68.2614 392.835 67.4378V58.7081C392.835 58.0493 392.835 57.3904 392.67 57.061C392.505 56.7316 392.341 56.4022 392.011 56.2375C391.682 56.0728 391.352 55.9081 390.694 55.9081C390.529 55.5787 390.529 54.9198 390.529 54.0963C392.341 54.0963 394.482 54.0963 396.623 54.0963C400.741 54.0963 403.541 54.0963 405.188 54.0963C405.518 56.4022 405.682 57.7199 405.847 58.5435C405.353 58.8729 404.694 59.0376 404.035 59.0376C403.87 58.0493 403.541 57.2258 402.882 56.7316C402.223 56.2375 400.906 55.9081 399.259 55.9081H396.788V62.1671H398.27C399.423 62.1671 400.247 62.0024 400.576 61.8377C401.07 61.5083 401.235 61.0141 401.235 60.3552C401.729 60.1905 402.388 60.0259 403.047 60.0259C403.047 60.6847 403.047 61.6729 403.047 62.9906C403.047 64.473 403.047 65.4613 403.047 66.1201C402.388 66.1201 401.729 66.1202 401.4 65.9555C401.4 65.1319 401.07 64.6377 400.576 64.473C400.082 64.1436 399.423 64.1436 398.27 64.1436H396.788V67.4378C396.788 68.2614 396.788 68.7555 396.953 69.2497C397.117 69.5791 397.282 69.9085 397.776 70.0732C398.106 70.2379 398.764 70.2379 399.423 70.2379H399.588C400.906 70.2379 401.729 70.0732 402.553 69.9085C403.212 69.7438 403.706 69.2496 404.2 68.9202C404.694 68.5908 404.859 67.7672 405.188 66.9437C405.847 67.1084 406.506 67.2731 407 67.7672Z" fill="white"/>
<path d="M172.452 200.031C172.452 202.501 171.628 204.643 169.817 206.125C168.005 207.607 165.369 208.431 161.746 208.431C156.146 208.431 152.193 208.431 149.722 208.596C149.722 207.607 149.722 206.949 149.887 206.619C150.71 206.619 151.369 206.454 151.698 206.125C152.193 205.96 152.357 205.466 152.522 204.972C152.687 204.313 152.851 203.49 152.851 202.337V185.536C152.851 184.548 152.687 183.724 152.522 183.23C152.357 182.736 152.028 182.407 151.698 182.077C151.204 181.913 150.71 181.748 149.887 181.583C149.722 181.089 149.722 180.43 149.722 179.607C150.875 179.771 152.357 179.771 154.169 179.771H157.463C158.287 179.771 159.275 179.771 160.758 179.771C163.722 179.771 166.028 180.265 167.84 181.254C169.487 182.242 170.311 183.724 170.311 186.03C170.311 187.842 169.817 189.325 168.664 190.642C167.511 191.96 166.028 192.619 164.052 192.948C169.817 193.113 172.452 195.584 172.452 200.031ZM163.722 182.901C162.569 182.077 161.087 181.583 159.44 181.583C158.946 181.583 158.287 181.583 157.628 181.748V192.289H158.946C163.228 192.289 165.369 190.478 165.369 187.019C165.534 185.207 164.875 183.889 163.722 182.901ZM165.699 204.807C166.687 203.819 167.181 202.337 167.181 200.525C167.181 196.407 164.381 194.431 158.616 194.431H157.628V202.337C157.628 203.49 157.793 204.478 157.957 204.972C158.122 205.466 158.616 205.96 159.11 206.125C159.605 206.29 160.428 206.454 161.416 206.454C163.393 206.454 164.875 205.96 165.699 204.807Z" fill="white"/>
<path d="M197.653 203.159C197.159 204.477 196.829 206.289 196.5 208.43H187.935C183.652 208.43 180.193 208.43 177.723 208.595C177.723 207.607 177.723 206.948 177.887 206.454C178.546 206.454 179.205 206.289 179.534 206.124C179.864 205.959 180.193 205.63 180.358 205.136C180.523 204.642 180.523 203.983 180.523 202.995V192.453C180.523 191.63 180.523 190.971 180.358 190.477C180.193 189.982 180.029 189.818 179.534 189.488C179.205 189.324 178.711 189.159 177.887 189.159C177.723 188.665 177.723 188.006 177.723 187.018C180.029 187.018 182.499 187.182 184.97 187.182C189.911 187.182 193.37 187.182 195.347 187.018C195.676 189.653 196.006 191.465 196.17 192.453C195.511 192.783 194.853 192.947 194.029 192.947C193.864 191.794 193.37 190.806 192.547 190.147C191.723 189.488 190.241 189.159 188.099 189.159H184.97V196.736H186.782C188.099 196.736 189.088 196.571 189.582 196.241C190.076 195.912 190.405 195.253 190.405 194.43C191.064 194.265 191.723 194.1 192.547 194.1C192.547 194.759 192.382 196.077 192.382 197.724C192.382 199.536 192.382 200.853 192.547 201.348C191.723 201.348 190.9 201.183 190.405 201.018C190.241 200.03 190.076 199.536 189.417 199.206C188.923 198.877 187.935 198.712 186.617 198.712H184.805V202.665C184.805 203.654 184.97 204.312 185.135 204.806C185.299 205.301 185.629 205.63 186.123 205.795C186.617 205.959 187.276 206.124 188.264 206.124H188.594C190.076 206.124 191.229 205.959 192.053 205.63C192.876 205.301 193.535 204.971 194.029 204.312C194.523 203.654 194.853 202.995 195.347 201.842C196.335 202.336 196.994 202.665 197.653 203.159Z" fill="white"/>
<path d="M225.489 208.595C224.171 208.595 222.689 208.43 220.877 208.43C218.9 208.43 217.253 208.43 215.936 208.595C215.936 207.607 216.1 206.948 216.265 206.454C216.924 206.289 217.418 206.289 217.583 206.124C217.912 205.959 218.077 205.63 218.077 205.301C218.077 204.971 217.912 204.642 217.747 204.148L216.924 202.501C212.971 202.501 209.677 202.665 207.535 202.83L207.206 203.653C206.876 204.148 206.877 204.642 206.877 205.136C206.877 205.959 207.371 206.454 208.524 206.618C208.688 207.112 208.853 207.936 208.853 208.76C207.7 208.76 206.547 208.595 205.229 208.595C204.076 208.595 203.088 208.595 202.1 208.76C202.1 208.101 202.265 207.277 202.429 206.618C203.088 206.454 203.582 206.289 203.912 205.795C204.241 205.465 204.735 204.642 205.229 203.324L212.641 187.347C213.3 187.182 213.959 187.182 214.618 187.182L222.689 203.324C223.348 204.642 223.842 205.465 224.171 205.795C224.501 206.124 225.159 206.454 225.654 206.454C225.489 206.948 225.489 207.607 225.489 208.595ZM215.936 200.524L213.63 195.583L213.135 194.594C212.641 193.771 212.312 192.783 211.982 191.794C211.818 192.453 211.488 193.277 211.159 193.936C210.83 194.594 210.665 195.089 210.5 195.418L208.194 200.524H215.936Z" fill="white"/>
<path d="M250.854 205.795C251.513 206.289 252.501 206.454 253.654 206.454C253.654 207.442 253.654 208.101 253.49 208.43C250.69 208.43 248.548 208.595 246.901 208.76C246.736 208.43 246.242 207.607 245.584 206.454C245.254 205.959 244.76 204.971 244.101 203.818C243.607 202.83 242.948 202.171 242.289 201.512C241.63 200.853 240.972 200.359 240.313 199.865H238.995H237.842V203.159C237.842 204.148 237.842 204.806 238.007 205.301C238.172 205.795 238.336 206.124 238.666 206.289C238.995 206.454 239.489 206.618 240.148 206.618C240.313 206.948 240.313 207.607 240.313 208.595C239.324 208.595 237.677 208.43 235.371 208.43C233.889 208.43 232.242 208.43 230.595 208.595C230.595 207.607 230.595 206.948 230.76 206.618C231.418 206.618 232.077 206.454 232.407 206.289C232.736 206.124 233.066 205.795 233.23 205.301C233.395 204.806 233.395 204.148 233.395 203.324V192.453C233.395 191.63 233.395 190.971 233.23 190.477C233.066 189.982 232.901 189.818 232.407 189.488C232.077 189.324 231.583 189.159 230.76 189.159C230.595 188.665 230.595 188.006 230.595 187.018C231.913 187.018 233.395 187.182 235.536 187.182H238.83C240.313 187.182 241.466 187.018 242.289 187.018C245.254 187.018 247.395 187.512 248.713 188.665C250.195 189.653 250.854 191.136 250.854 192.783C250.854 194.43 250.36 195.912 249.207 196.9C248.219 198.053 246.736 198.712 244.76 199.042C245.419 199.371 246.078 199.865 246.572 200.359C247.066 200.853 247.889 202.006 248.878 203.489C249.372 204.642 250.195 205.301 250.854 205.795ZM243.936 196.406C245.089 195.747 245.748 194.594 245.748 193.277C245.748 190.477 243.936 188.994 240.148 188.994C239.324 188.994 238.501 189.159 237.677 189.324V197.394C238.336 197.559 238.83 197.559 239.16 197.559C241.136 197.559 242.783 197.23 243.936 196.406Z" fill="white"/>
<path d="M258.76 206.454C259.419 206.454 260.078 206.289 260.408 206.124C260.737 205.959 261.066 205.63 261.231 205.136C261.396 204.642 261.396 203.983 261.396 202.995V192.453C261.396 191.63 261.396 190.971 261.231 190.477C261.066 189.982 260.902 189.818 260.408 189.488C259.913 189.159 259.419 189.159 258.76 189.159C258.596 188.665 258.596 188.006 258.596 187.018C260.243 187.018 262.219 187.182 264.525 187.182C265.349 187.182 266.008 187.182 266.502 187.182H268.808C272.926 187.182 276.384 187.841 278.855 189.324C281.49 190.806 282.808 193.441 282.808 197.394C282.808 201.842 281.326 204.806 278.361 206.289C275.396 207.771 272.102 208.595 268.808 208.595C264.525 208.595 261.066 208.595 258.596 208.76C258.596 207.607 258.596 206.783 258.76 206.454ZM273.914 205.795C275.231 205.301 276.22 204.477 276.879 203.324C277.702 202.006 278.032 200.195 278.032 197.889C278.032 194.759 277.043 192.618 275.232 191.3C273.42 189.982 271.114 189.324 268.314 189.324C267.325 189.324 266.502 189.488 266.008 189.653V203.159C266.008 204.148 266.172 204.806 266.337 205.301C266.502 205.795 266.831 206.124 267.325 206.289C267.82 206.454 268.478 206.618 269.302 206.618C271.114 206.289 272.596 206.124 273.914 205.795Z" fill="white"/>
<path d="M299.938 198.877C295.491 198.877 291.373 198.877 287.75 199.042C287.75 198.547 287.75 198.053 287.914 197.395C288.079 196.736 288.244 196.242 288.408 195.912H300.432C300.432 197.065 300.268 198.053 299.938 198.877Z" fill="white"/>
<path d="M311.797 206.948C309.656 205.63 308.009 203.983 306.856 201.677C305.703 199.371 305.044 196.736 305.044 193.936C305.044 190.806 305.703 188.171 307.021 186.029C308.338 183.888 310.15 182.241 312.291 181.088C314.433 179.935 316.739 179.441 319.374 179.441C321.021 179.441 322.668 179.606 324.151 179.935C325.633 180.265 327.115 180.923 328.762 181.582C328.433 183.229 328.268 185.371 328.268 188.171C327.609 188.5 326.786 188.665 325.633 188.665C325.468 185.865 324.974 184.053 323.986 183.065C322.998 182.076 321.515 181.418 319.539 181.418C317.397 181.418 315.586 181.912 314.103 183.065C312.621 184.053 311.633 185.535 310.974 187.182C310.315 188.83 309.985 190.806 309.985 192.947C309.985 195.418 310.315 197.724 311.138 199.7C311.962 201.677 313.115 203.324 314.762 204.477C316.409 205.63 318.221 206.289 320.362 206.289C321.68 206.289 322.998 206.124 324.315 205.63C325.633 205.136 326.951 204.642 328.104 203.818C328.268 203.983 328.433 204.148 328.598 204.477C328.762 204.806 328.927 204.971 328.927 205.301C327.28 206.618 325.633 207.442 323.986 208.101C322.339 208.76 320.527 209.089 318.386 209.089C316.244 208.76 313.939 208.265 311.797 206.948Z" fill="white"/>
<path d="M348.363 205.959C349.187 205.63 349.681 205.301 350.175 204.642C350.669 203.983 350.998 203.324 351.493 202.171C352.481 202.336 353.14 202.665 353.634 203.159C353.14 204.477 352.81 206.289 352.481 208.43H344.575C340.292 208.43 336.833 208.43 334.363 208.595C334.363 207.607 334.363 206.948 334.528 206.454C335.186 206.454 335.845 206.289 336.175 206.124C336.504 205.959 336.833 205.63 336.998 205.136C337.163 204.642 337.163 203.983 337.163 202.995V192.453C337.163 191.63 337.163 190.971 336.998 190.477C336.833 189.982 336.669 189.818 336.175 189.488C335.68 189.159 335.186 189.159 334.528 189.159C334.363 188.665 334.363 188.006 334.363 187.018C336.504 187.018 338.316 187.182 339.469 187.182C340.786 187.182 342.434 187.182 344.575 187.018C344.575 188.006 344.41 188.665 344.245 189.159C343.587 189.159 343.092 189.324 342.598 189.488C342.269 189.653 341.939 189.982 341.939 190.477C341.775 190.971 341.775 191.63 341.775 192.453V202.83C341.775 203.818 341.939 204.477 342.104 204.971C342.269 205.465 342.598 205.795 343.092 205.959C343.587 206.124 344.245 206.289 345.069 206.289H345.398C346.716 206.289 347.704 206.289 348.363 205.959Z" fill="white"/>
<path d="M364.34 207.936C363.022 207.442 362.034 206.618 361.375 205.465C360.716 204.312 360.552 202.83 360.552 201.018V192.618C360.552 191.63 360.552 190.971 360.387 190.477C360.222 189.982 360.058 189.653 359.728 189.488C359.399 189.324 358.905 189.159 358.246 189.159C358.081 188.665 358.081 188.006 358.081 187.018C359.399 187.018 360.881 187.182 362.693 187.182C364.669 187.182 366.317 187.182 367.964 187.018C367.964 187.841 367.964 188.5 367.799 189.159C366.975 189.324 366.481 189.324 366.152 189.488C365.822 189.653 365.493 189.982 365.493 190.477C365.328 190.971 365.328 191.63 365.328 192.618V200.524C365.328 202.501 365.822 203.983 366.646 204.971C367.47 205.959 369.117 206.454 371.258 206.454C371.917 206.454 372.576 206.289 373.234 206.124C373.893 205.959 374.552 205.63 375.046 205.136C375.54 204.642 375.87 203.983 376.199 203.159C376.364 202.336 376.529 201.183 376.529 199.536V193.277C376.529 192.124 376.529 191.465 376.364 190.806C376.199 190.312 376.034 189.818 375.54 189.653C375.211 189.324 374.717 189.159 373.893 189.159C373.729 188.5 373.729 187.841 373.729 187.018C374.881 187.018 376.199 187.182 377.352 187.182C378.505 187.182 379.823 187.182 380.976 187.018C380.976 187.841 380.976 188.5 380.811 189.159C379.823 189.324 379.329 189.488 378.999 190.147C378.67 190.641 378.505 191.63 378.505 193.112V199.7C378.505 201.677 378.34 203.159 378.011 204.148C377.682 205.301 377.187 206.124 376.364 206.783C375.046 207.936 372.905 208.595 370.105 208.595C367.47 208.76 365.658 208.43 364.34 207.936Z" fill="white"/>
<path d="M405.023 198.548C406.341 199.536 407 200.689 407 202.501C407 204.312 406.176 205.795 404.529 206.948C402.882 208.101 400.412 208.595 397.282 208.595C393.329 208.595 389.705 208.595 386.411 208.76C386.411 207.771 386.411 207.112 386.576 206.618C387.235 206.618 387.893 206.454 388.223 206.289C388.552 206.124 388.882 205.795 389.046 205.301C389.211 204.806 389.211 204.148 389.211 203.159V192.618C389.211 191.794 389.211 191.135 389.046 190.641C388.882 190.147 388.717 189.983 388.223 189.653C387.729 189.324 387.235 189.324 386.576 189.324C386.411 188.83 386.411 188.171 386.411 187.182C387.729 187.182 389.047 187.347 390.364 187.347H393.658C394.317 187.347 395.141 187.347 396.294 187.347C402.223 187.347 405.188 188.994 405.188 192.124C405.188 193.441 404.694 194.594 403.706 195.418C402.718 196.242 401.4 196.9 399.588 197.065C401.894 197.065 403.706 197.559 405.023 198.548ZM399.094 190.147C398.27 189.488 396.953 189.324 395.47 189.324C394.976 189.324 394.317 189.324 393.823 189.488V196.406H394.976C396.953 196.406 398.435 196.077 399.259 195.583C400.082 194.924 400.412 194.1 400.412 192.947C400.412 191.63 399.917 190.641 399.094 190.147ZM400.576 205.465C401.4 204.806 401.894 203.983 401.894 202.83C401.894 201.348 401.235 200.195 399.917 199.536C398.6 198.877 396.788 198.548 394.811 198.548H393.988V203.159C393.988 204.477 394.153 205.301 394.647 205.795C395.141 206.289 395.8 206.454 396.953 206.454C398.435 206.454 399.753 206.124 400.576 205.465Z" fill="white"/>
</svg>
